<svg width="840" height="284" viewBox="0 0 840 284" fill="none" xmlns="http://www.w3.org/2000/svg">
<rect width="840" height="284" fill="white"/>
<rect x="321" y="181" width="203" height="41" fill="#2C5151"/>
<rect x="317" y="177" width="203" height="41" fill="#87AB34"/>
<path d="M352.18 199.828C352.18 200.859 351.807 201.672 351.062 202.266C350.323 202.859 349.292 203.156 347.969 203.156C346.75 203.156 345.672 202.927 344.734 202.469V200.219C345.505 200.562 346.156 200.805 346.688 200.945C347.224 201.086 347.714 201.156 348.156 201.156C348.688 201.156 349.094 201.055 349.375 200.852C349.661 200.648 349.805 200.346 349.805 199.945C349.805 199.721 349.742 199.523 349.617 199.352C349.492 199.174 349.307 199.005 349.062 198.844C348.823 198.682 348.331 198.424 347.586 198.07C346.888 197.742 346.365 197.427 346.016 197.125C345.667 196.823 345.388 196.471 345.18 196.07C344.971 195.669 344.867 195.201 344.867 194.664C344.867 193.654 345.208 192.859 345.891 192.281C346.578 191.703 347.526 191.414 348.734 191.414C349.328 191.414 349.893 191.484 350.43 191.625C350.971 191.766 351.536 191.964 352.125 192.219L351.344 194.102C350.734 193.852 350.229 193.677 349.828 193.578C349.432 193.479 349.042 193.43 348.656 193.43C348.198 193.43 347.846 193.536 347.602 193.75C347.357 193.964 347.234 194.242 347.234 194.586C347.234 194.799 347.284 194.987 347.383 195.148C347.482 195.305 347.638 195.458 347.852 195.609C348.07 195.755 348.583 196.021 349.391 196.406C350.458 196.917 351.19 197.43 351.586 197.945C351.982 198.456 352.18 199.083 352.18 199.828ZM357.742 201.258C358.159 201.258 358.659 201.167 359.242 200.984V202.758C358.648 203.023 357.919 203.156 357.055 203.156C356.102 203.156 355.406 202.917 354.969 202.438C354.536 201.953 354.32 201.229 354.32 200.266V196.055H353.18V195.047L354.492 194.25L355.18 192.406H356.703V194.266H359.148V196.055H356.703V200.266C356.703 200.604 356.797 200.854 356.984 201.016C357.177 201.177 357.43 201.258 357.742 201.258ZM366.562 203L366.102 201.812H366.039C365.638 202.318 365.224 202.669 364.797 202.867C364.375 203.06 363.823 203.156 363.141 203.156C362.302 203.156 361.641 202.917 361.156 202.438C360.677 201.958 360.438 201.276 360.438 200.391C360.438 199.464 360.76 198.781 361.406 198.344C362.057 197.901 363.036 197.656 364.344 197.609L365.859 197.562V197.18C365.859 196.294 365.406 195.852 364.5 195.852C363.802 195.852 362.982 196.062 362.039 196.484L361.25 194.875C362.255 194.349 363.37 194.086 364.594 194.086C365.766 194.086 366.664 194.341 367.289 194.852C367.914 195.362 368.227 196.138 368.227 197.18V203H366.562ZM365.859 198.953L364.938 198.984C364.245 199.005 363.729 199.13 363.391 199.359C363.052 199.589 362.883 199.938 362.883 200.406C362.883 201.078 363.268 201.414 364.039 201.414C364.591 201.414 365.031 201.255 365.359 200.938C365.693 200.62 365.859 200.198 365.859 199.672V198.953ZM375.562 194.102C375.885 194.102 376.154 194.125 376.367 194.172L376.188 196.406C375.995 196.354 375.76 196.328 375.484 196.328C374.724 196.328 374.13 196.523 373.703 196.914C373.281 197.305 373.07 197.852 373.07 198.555V203H370.688V194.266H372.492L372.844 195.734H372.961C373.232 195.245 373.596 194.852 374.055 194.555C374.518 194.253 375.021 194.102 375.562 194.102ZM381.633 201.258C382.049 201.258 382.549 201.167 383.133 200.984V202.758C382.539 203.023 381.81 203.156 380.945 203.156C379.992 203.156 379.297 202.917 378.859 202.438C378.427 201.953 378.211 201.229 378.211 200.266V196.055H377.07V195.047L378.383 194.25L379.07 192.406H380.594V194.266H383.039V196.055H380.594V200.266C380.594 200.604 380.688 200.854 380.875 201.016C381.068 201.177 381.32 201.258 381.633 201.258ZM400.375 203H397.617L396.07 197C396.013 196.786 395.914 196.346 395.773 195.68C395.638 195.008 395.56 194.557 395.539 194.328C395.508 194.609 395.43 195.062 395.305 195.688C395.18 196.307 395.083 196.75 395.016 197.016L393.477 203H390.727L387.812 191.578H390.195L391.656 197.812C391.911 198.964 392.096 199.961 392.211 200.805C392.242 200.508 392.312 200.049 392.422 199.43C392.536 198.805 392.643 198.32 392.742 197.977L394.406 191.578H396.695L398.359 197.977C398.432 198.263 398.523 198.701 398.633 199.289C398.742 199.878 398.826 200.383 398.883 200.805C398.935 200.398 399.018 199.893 399.133 199.289C399.247 198.68 399.352 198.188 399.445 197.812L400.898 191.578H403.281L400.375 203ZM406.43 198.617C406.43 199.482 406.57 200.135 406.852 200.578C407.138 201.021 407.602 201.242 408.242 201.242C408.878 201.242 409.333 201.023 409.609 200.586C409.891 200.143 410.031 199.487 410.031 198.617C410.031 197.753 409.891 197.104 409.609 196.672C409.328 196.24 408.867 196.023 408.227 196.023C407.591 196.023 407.133 196.24 406.852 196.672C406.57 197.099 406.43 197.747 406.43 198.617ZM412.469 198.617C412.469 200.039 412.094 201.151 411.344 201.953C410.594 202.755 409.549 203.156 408.211 203.156C407.372 203.156 406.633 202.974 405.992 202.609C405.352 202.24 404.859 201.711 404.516 201.023C404.172 200.336 404 199.534 404 198.617C404 197.19 404.372 196.081 405.117 195.289C405.862 194.497 406.909 194.102 408.258 194.102C409.096 194.102 409.836 194.284 410.477 194.648C411.117 195.013 411.609 195.536 411.953 196.219C412.297 196.901 412.469 197.701 412.469 198.617ZM419.312 194.102C419.635 194.102 419.904 194.125 420.117 194.172L419.938 196.406C419.745 196.354 419.51 196.328 419.234 196.328C418.474 196.328 417.88 196.523 417.453 196.914C417.031 197.305 416.82 197.852 416.82 198.555V203H414.438V194.266H416.242L416.594 195.734H416.711C416.982 195.245 417.346 194.852 417.805 194.555C418.268 194.253 418.771 194.102 419.312 194.102ZM423.992 198.25L425.031 196.922L427.477 194.266H430.164L426.695 198.055L430.375 203H427.625L425.109 199.461L424.086 200.281V203H421.703V190.844H424.086V196.266L423.961 198.25H423.992ZM437.719 200.406C437.719 201.302 437.406 201.984 436.781 202.453C436.161 202.922 435.232 203.156 433.992 203.156C433.357 203.156 432.815 203.112 432.367 203.023C431.919 202.94 431.5 202.815 431.109 202.648V200.68C431.552 200.888 432.049 201.062 432.602 201.203C433.159 201.344 433.648 201.414 434.07 201.414C434.935 201.414 435.367 201.164 435.367 200.664C435.367 200.477 435.31 200.326 435.195 200.211C435.081 200.091 434.883 199.958 434.602 199.812C434.32 199.661 433.945 199.487 433.477 199.289C432.805 199.008 432.31 198.747 431.992 198.508C431.68 198.268 431.451 197.995 431.305 197.688C431.164 197.375 431.094 196.992 431.094 196.539C431.094 195.763 431.393 195.164 431.992 194.742C432.596 194.315 433.451 194.102 434.555 194.102C435.607 194.102 436.63 194.331 437.625 194.789L436.906 196.508C436.469 196.32 436.06 196.167 435.68 196.047C435.299 195.927 434.911 195.867 434.516 195.867C433.812 195.867 433.461 196.057 433.461 196.438C433.461 196.651 433.573 196.836 433.797 196.992C434.026 197.148 434.523 197.38 435.289 197.688C435.971 197.964 436.471 198.221 436.789 198.461C437.107 198.701 437.341 198.977 437.492 199.289C437.643 199.602 437.719 199.974 437.719 200.406ZM447.641 203H445.258V197.898C445.258 196.638 444.789 196.008 443.852 196.008C443.185 196.008 442.703 196.234 442.406 196.688C442.109 197.141 441.961 197.875 441.961 198.891V203H439.578V190.844H441.961V193.32C441.961 193.513 441.943 193.966 441.906 194.68L441.852 195.383H441.977C442.508 194.529 443.352 194.102 444.508 194.102C445.534 194.102 446.312 194.378 446.844 194.93C447.375 195.482 447.641 196.273 447.641 197.305V203ZM451.992 198.617C451.992 199.482 452.133 200.135 452.414 200.578C452.701 201.021 453.164 201.242 453.805 201.242C454.44 201.242 454.896 201.023 455.172 200.586C455.453 200.143 455.594 199.487 455.594 198.617C455.594 197.753 455.453 197.104 455.172 196.672C454.891 196.24 454.43 196.023 453.789 196.023C453.154 196.023 452.695 196.24 452.414 196.672C452.133 197.099 451.992 197.747 451.992 198.617ZM458.031 198.617C458.031 200.039 457.656 201.151 456.906 201.953C456.156 202.755 455.112 203.156 453.773 203.156C452.935 203.156 452.195 202.974 451.555 202.609C450.914 202.24 450.422 201.711 450.078 201.023C449.734 200.336 449.562 199.534 449.562 198.617C449.562 197.19 449.935 196.081 450.68 195.289C451.424 194.497 452.471 194.102 453.82 194.102C454.659 194.102 455.398 194.284 456.039 194.648C456.68 195.013 457.172 195.536 457.516 196.219C457.859 196.901 458.031 197.701 458.031 198.617ZM464.797 203.156C463.771 203.156 462.966 202.784 462.383 202.039H462.258C462.341 202.768 462.383 203.19 462.383 203.305V206.844H460V194.266H461.938L462.273 195.398H462.383C462.94 194.534 463.766 194.102 464.859 194.102C465.891 194.102 466.698 194.5 467.281 195.297C467.865 196.094 468.156 197.201 468.156 198.617C468.156 199.549 468.018 200.359 467.742 201.047C467.471 201.734 467.083 202.258 466.578 202.617C466.073 202.977 465.479 203.156 464.797 203.156ZM464.094 196.008C463.505 196.008 463.076 196.19 462.805 196.555C462.534 196.914 462.393 197.51 462.383 198.344V198.602C462.383 199.539 462.521 200.211 462.797 200.617C463.078 201.023 463.521 201.227 464.125 201.227C465.193 201.227 465.727 200.346 465.727 198.586C465.727 197.727 465.594 197.083 465.328 196.656C465.068 196.224 464.656 196.008 464.094 196.008Z" fill="white"/>
<path d="M481.5 193L486.5 198L481.5 203" stroke="white" stroke-width="2" stroke-linecap="round" stroke-linejoin="round"/>
<path d="M488 193L493 198L488 203" stroke="white" stroke-width="2" stroke-linecap="round" stroke-linejoin="round"/>
<path d="M236.154 125.963H239.558C241.842 125.963 243.496 125.539 244.521 124.691C245.547 123.844 246.059 122.586 246.059 120.918C246.059 119.223 245.506 118.006 244.398 117.268C243.291 116.529 241.623 116.16 239.394 116.16H236.154V125.963ZM236.154 130.023V142H231.253V112.018H239.722C243.592 112.018 246.456 112.742 248.315 114.191C250.175 115.641 251.104 117.828 251.104 120.754C251.104 124.486 249.163 127.146 245.28 128.731L253.75 142H248.172L240.994 130.023H236.154ZM265.83 142.41C262.303 142.41 259.541 141.385 257.545 139.334C255.563 137.27 254.572 134.433 254.572 130.823C254.572 127.118 255.495 124.206 257.34 122.087C259.186 119.968 261.722 118.908 264.949 118.908C267.943 118.908 270.308 119.817 272.044 121.636C273.781 123.454 274.649 125.956 274.649 129.142V131.746H259.535C259.603 133.947 260.198 135.643 261.319 136.832C262.44 138.008 264.019 138.596 266.056 138.596C267.396 138.596 268.64 138.473 269.788 138.227C270.951 137.967 272.195 137.543 273.521 136.955V140.872C272.345 141.433 271.156 141.829 269.953 142.062C268.749 142.294 267.375 142.41 265.83 142.41ZM264.949 122.559C263.417 122.559 262.187 123.044 261.257 124.015C260.341 124.985 259.794 126.4 259.617 128.26H269.912C269.884 126.387 269.433 124.972 268.558 124.015C267.683 123.044 266.48 122.559 264.949 122.559ZM292.636 142L291.672 138.842H291.508C290.414 140.223 289.314 141.166 288.206 141.672C287.099 142.164 285.677 142.41 283.941 142.41C281.712 142.41 279.969 141.809 278.711 140.605C277.467 139.402 276.845 137.7 276.845 135.499C276.845 133.161 277.713 131.397 279.449 130.208C281.186 129.019 283.831 128.369 287.386 128.26L291.303 128.137V126.927C291.303 125.478 290.961 124.397 290.277 123.687C289.607 122.962 288.562 122.6 287.14 122.6C285.978 122.6 284.863 122.771 283.797 123.112C282.731 123.454 281.705 123.857 280.721 124.322L279.162 120.877C280.393 120.234 281.739 119.749 283.202 119.421C284.665 119.079 286.046 118.908 287.345 118.908C290.23 118.908 292.403 119.537 293.866 120.795C295.343 122.053 296.081 124.028 296.081 126.722V142H292.636ZM285.458 138.719C287.208 138.719 288.609 138.233 289.662 137.263C290.729 136.278 291.262 134.904 291.262 133.141V131.172L288.35 131.295C286.08 131.377 284.426 131.76 283.387 132.443C282.361 133.113 281.849 134.146 281.849 135.54C281.849 136.552 282.149 137.338 282.751 137.898C283.353 138.445 284.255 138.719 285.458 138.719ZM310.274 142.41C306.843 142.41 304.231 141.412 302.44 139.416C300.663 137.406 299.774 134.528 299.774 130.782C299.774 126.968 300.704 124.035 302.563 121.984C304.436 119.934 307.136 118.908 310.664 118.908C313.056 118.908 315.21 119.353 317.124 120.241L315.668 124.117C313.631 123.324 311.949 122.928 310.623 122.928C306.699 122.928 304.737 125.532 304.737 130.741C304.737 133.284 305.222 135.198 306.193 136.483C307.177 137.755 308.613 138.391 310.5 138.391C312.646 138.391 314.677 137.857 316.591 136.791V140.995C315.729 141.501 314.806 141.863 313.822 142.082C312.851 142.301 311.669 142.41 310.274 142.41ZM328.692 138.514C329.868 138.514 331.043 138.329 332.219 137.96V141.59C331.686 141.822 330.996 142.014 330.148 142.164C329.314 142.328 328.446 142.41 327.543 142.41C322.977 142.41 320.694 140.004 320.694 135.191V122.969H317.597V120.836L320.919 119.072L322.56 114.273H325.534V119.318H331.994V122.969H325.534V135.109C325.534 136.271 325.821 137.133 326.395 137.693C326.983 138.24 327.748 138.514 328.692 138.514ZM349.695 142H344.835V112.018H361.754V116.16H349.695V125.532H360.995V129.695H349.695V142ZM380.992 142L380.315 139.026H380.069C379.399 140.079 378.442 140.906 377.198 141.508C375.967 142.109 374.559 142.41 372.973 142.41C370.225 142.41 368.174 141.727 366.821 140.359C365.467 138.992 364.791 136.921 364.791 134.146V119.318H369.651V133.305C369.651 135.041 370.006 136.347 370.717 137.222C371.428 138.083 372.542 138.514 374.06 138.514C376.083 138.514 377.567 137.912 378.51 136.709C379.467 135.492 379.946 133.462 379.946 130.618V119.318H384.786V142H380.992ZM409.93 142H405.09V128.055C405.09 126.305 404.735 124.999 404.024 124.138C403.326 123.276 402.212 122.846 400.681 122.846C398.644 122.846 397.153 123.447 396.21 124.65C395.267 125.854 394.795 127.87 394.795 130.7V142H389.976V119.318H393.749L394.426 122.292H394.672C395.356 121.212 396.326 120.378 397.584 119.79C398.842 119.202 400.236 118.908 401.768 118.908C407.209 118.908 409.93 121.677 409.93 127.214V142ZM422.605 142.41C419.775 142.41 417.567 141.385 415.981 139.334C414.395 137.283 413.602 134.405 413.602 130.7C413.602 126.981 414.402 124.09 416.002 122.025C417.615 119.947 419.844 118.908 422.687 118.908C425.668 118.908 427.937 120.009 429.496 122.21H429.742C429.51 120.583 429.393 119.298 429.393 118.354V110.09H434.233V142H430.46L429.619 139.026H429.393C427.848 141.282 425.586 142.41 422.605 142.41ZM423.897 138.514C425.88 138.514 427.322 137.96 428.224 136.853C429.127 135.731 429.592 133.92 429.619 131.418V130.741C429.619 127.884 429.154 125.854 428.224 124.65C427.295 123.447 425.839 122.846 423.856 122.846C422.161 122.846 420.855 123.536 419.939 124.917C419.023 126.284 418.565 128.239 418.565 130.782C418.565 133.298 419.01 135.219 419.898 136.545C420.787 137.857 422.12 138.514 423.897 138.514ZM453.635 142L452.671 138.842H452.507C451.414 140.223 450.313 141.166 449.206 141.672C448.098 142.164 446.676 142.41 444.94 142.41C442.711 142.41 440.968 141.809 439.71 140.605C438.466 139.402 437.844 137.7 437.844 135.499C437.844 133.161 438.712 131.397 440.449 130.208C442.185 129.019 444.831 128.369 448.385 128.26L452.302 128.137V126.927C452.302 125.478 451.96 124.397 451.277 123.687C450.607 122.962 449.561 122.6 448.139 122.6C446.977 122.6 445.863 122.771 444.796 123.112C443.73 123.454 442.705 123.857 441.72 124.322L440.162 120.877C441.392 120.234 442.739 119.749 444.202 119.421C445.665 119.079 447.045 118.908 448.344 118.908C451.229 118.908 453.403 119.537 454.866 120.795C456.342 122.053 457.081 124.028 457.081 126.722V142H453.635ZM446.458 138.719C448.208 138.719 449.609 138.233 450.662 137.263C451.728 136.278 452.261 134.904 452.261 133.141V131.172L449.349 131.295C447.08 131.377 445.425 131.76 444.386 132.443C443.361 133.113 442.848 134.146 442.848 135.54C442.848 136.552 443.149 137.338 443.751 137.898C444.352 138.445 445.254 138.719 446.458 138.719ZM481.24 142H476.401V128.014C476.401 126.277 476.072 124.985 475.416 124.138C474.76 123.276 473.735 122.846 472.34 122.846C470.481 122.846 469.113 123.454 468.238 124.671C467.377 125.874 466.946 127.884 466.946 130.7V142H462.127V119.318H465.901L466.577 122.292H466.823C467.452 121.212 468.362 120.378 469.551 119.79C470.754 119.202 472.073 118.908 473.509 118.908C476.995 118.908 479.306 120.098 480.441 122.477H480.769C481.439 121.355 482.382 120.48 483.599 119.852C484.816 119.223 486.21 118.908 487.782 118.908C490.489 118.908 492.458 119.592 493.689 120.959C494.933 122.326 495.555 124.411 495.555 127.214V142H490.736V128.014C490.736 126.277 490.401 124.985 489.731 124.138C489.074 123.276 488.049 122.846 486.654 122.846C484.781 122.846 483.407 123.434 482.532 124.609C481.671 125.771 481.24 127.562 481.24 129.982V142ZM510.507 142.41C506.979 142.41 504.218 141.385 502.222 139.334C500.239 137.27 499.248 134.433 499.248 130.823C499.248 127.118 500.171 124.206 502.016 122.087C503.862 119.968 506.398 118.908 509.625 118.908C512.619 118.908 514.984 119.817 516.721 121.636C518.457 123.454 519.325 125.956 519.325 129.142V131.746H504.211C504.279 133.947 504.874 135.643 505.995 136.832C507.116 138.008 508.695 138.596 510.732 138.596C512.072 138.596 513.316 138.473 514.465 138.227C515.627 137.967 516.871 137.543 518.197 136.955V140.872C517.021 141.433 515.832 141.829 514.629 142.062C513.426 142.294 512.052 142.41 510.507 142.41ZM509.625 122.559C508.094 122.559 506.863 123.044 505.933 124.015C505.017 124.985 504.471 126.4 504.293 128.26H514.588C514.56 126.387 514.109 124.972 513.234 124.015C512.359 123.044 511.156 122.559 509.625 122.559ZM543.075 142H538.235V128.055C538.235 126.305 537.879 124.999 537.169 124.138C536.471 123.276 535.357 122.846 533.826 122.846C531.789 122.846 530.298 123.447 529.355 124.65C528.412 125.854 527.94 127.87 527.94 130.7V142H523.121V119.318H526.894L527.571 122.292H527.817C528.501 121.212 529.471 120.378 530.729 119.79C531.987 119.202 533.381 118.908 534.913 118.908C540.354 118.908 543.075 121.677 543.075 127.214V142ZM556.55 138.514C557.726 138.514 558.902 138.329 560.077 137.96V141.59C559.544 141.822 558.854 142.014 558.006 142.164C557.172 142.328 556.304 142.41 555.402 142.41C550.835 142.41 548.552 140.004 548.552 135.191V122.969H545.455V120.836L548.778 119.072L550.418 114.273H553.392V119.318H559.852V122.969H553.392V135.109C553.392 136.271 553.679 137.133 554.253 137.693C554.841 138.24 555.607 138.514 556.55 138.514ZM577.142 142L576.178 138.842H576.014C574.92 140.223 573.819 141.166 572.712 141.672C571.604 142.164 570.183 142.41 568.446 142.41C566.218 142.41 564.475 141.809 563.217 140.605C561.973 139.402 561.35 137.7 561.35 135.499C561.35 133.161 562.219 131.397 563.955 130.208C565.691 129.019 568.337 128.369 571.892 128.26L575.809 128.137V126.927C575.809 125.478 575.467 124.397 574.783 123.687C574.113 122.962 573.067 122.6 571.645 122.6C570.483 122.6 569.369 122.771 568.303 123.112C567.236 123.454 566.211 123.857 565.226 124.322L563.668 120.877C564.898 120.234 566.245 119.749 567.708 119.421C569.171 119.079 570.552 118.908 571.85 118.908C574.735 118.908 576.909 119.537 578.372 120.795C579.849 122.053 580.587 124.028 580.587 126.722V142H577.142ZM569.964 138.719C571.714 138.719 573.115 138.233 574.168 137.263C575.234 136.278 575.767 134.904 575.767 133.141V131.172L572.855 131.295C570.586 131.377 568.932 131.76 567.892 132.443C566.867 133.113 566.354 134.146 566.354 135.54C566.354 136.552 566.655 137.338 567.257 137.898C567.858 138.445 568.761 138.719 569.964 138.719ZM590.453 142H585.633V110.09H590.453V142ZM610.921 135.54C610.921 137.755 610.115 139.457 608.501 140.646C606.888 141.822 604.577 142.41 601.57 142.41C598.548 142.41 596.121 141.952 594.289 141.036V136.873C596.955 138.104 599.437 138.719 601.734 138.719C604.7 138.719 606.184 137.823 606.184 136.032C606.184 135.458 606.02 134.979 605.692 134.597C605.364 134.214 604.824 133.817 604.072 133.407C603.32 132.997 602.274 132.532 600.934 132.013C598.323 131.001 596.552 129.989 595.622 128.978C594.706 127.966 594.248 126.653 594.248 125.04C594.248 123.099 595.028 121.595 596.586 120.528C598.158 119.448 600.291 118.908 602.985 118.908C605.651 118.908 608.173 119.448 610.552 120.528L608.993 124.158C606.546 123.146 604.489 122.641 602.821 122.641C600.278 122.641 599.006 123.365 599.006 124.814C599.006 125.525 599.334 126.127 599.991 126.619C600.66 127.111 602.11 127.788 604.338 128.649C606.211 129.374 607.572 130.037 608.419 130.639C609.267 131.24 609.896 131.938 610.306 132.73C610.716 133.51 610.921 134.446 610.921 135.54Z" fill="#2E2E30"/>
<path d="M379.878 91.2148C378.138 91.2148 376.763 90.6849 375.753 89.625C374.75 88.5651 374.249 87.0934 374.249 85.21C374.249 83.3122 374.715 81.8047 375.646 80.6875C376.584 79.5703 377.84 79.0117 379.416 79.0117C380.891 79.0117 382.059 79.4987 382.918 80.4727C383.777 81.4395 384.207 82.7178 384.207 84.3076V85.4355H376.097C376.132 86.8177 376.48 87.8669 377.139 88.583C377.805 89.2992 378.739 89.6572 379.942 89.6572C381.21 89.6572 382.463 89.3923 383.702 88.8623V90.4521C383.072 90.7243 382.474 90.9176 381.908 91.0322C381.35 91.154 380.673 91.2148 379.878 91.2148ZM379.395 80.5049C378.449 80.5049 377.694 80.8128 377.128 81.4287C376.569 82.0446 376.24 82.8968 376.14 83.9854H382.295C382.295 82.861 382.044 82.0016 381.543 81.4072C381.042 80.8057 380.326 80.5049 379.395 80.5049ZM397.42 85.1025C397.42 87.0218 396.937 88.5221 395.97 89.6035C395.003 90.6777 393.667 91.2148 391.963 91.2148C390.91 91.2148 389.976 90.9678 389.159 90.4736C388.343 89.9795 387.713 89.2705 387.269 88.3467C386.825 87.4229 386.603 86.3415 386.603 85.1025C386.603 83.1833 387.082 81.6901 388.042 80.623C389.002 79.5488 390.334 79.0117 392.038 79.0117C393.685 79.0117 394.992 79.5596 395.959 80.6553C396.933 81.751 397.42 83.2334 397.42 85.1025ZM388.45 85.1025C388.45 86.6064 388.751 87.7523 389.353 88.54C389.954 89.3278 390.839 89.7217 392.006 89.7217C393.173 89.7217 394.058 89.3314 394.659 88.5508C395.268 87.763 395.572 86.6136 395.572 85.1025C395.572 83.6058 395.268 82.4707 394.659 81.6973C394.058 80.9167 393.166 80.5264 391.984 80.5264C390.817 80.5264 389.936 80.9095 389.342 81.6758C388.747 82.4421 388.45 83.5843 388.45 85.1025ZM408.57 89.4209H408.474C407.65 90.6169 406.418 91.2148 404.778 91.2148C403.239 91.2148 402.039 90.6885 401.18 89.6357C400.327 88.583 399.901 87.0863 399.901 85.1455C399.901 83.2048 400.331 81.6973 401.19 80.623C402.05 79.5488 403.246 79.0117 404.778 79.0117C406.375 79.0117 407.6 79.5918 408.452 80.752H408.592L408.517 79.9033L408.474 79.0762V74.2852H410.257V91H408.807L408.57 89.4209ZM405.004 89.7217C406.221 89.7217 407.102 89.3923 407.646 88.7334C408.198 88.0674 408.474 86.9967 408.474 85.5215V85.1455C408.474 83.4769 408.194 82.2881 407.636 81.5791C407.084 80.863 406.2 80.5049 404.982 80.5049C403.937 80.5049 403.135 80.9131 402.576 81.7295C402.025 82.5387 401.749 83.6846 401.749 85.167C401.749 86.6709 402.025 87.806 402.576 88.5723C403.128 89.3385 403.937 89.7217 405.004 89.7217ZM421.289 91L420.935 89.3242H420.849C420.261 90.0618 419.674 90.5632 419.087 90.8281C418.507 91.0859 417.78 91.2148 416.906 91.2148C415.739 91.2148 414.822 90.9141 414.156 90.3125C413.497 89.7109 413.168 88.8551 413.168 87.7451C413.168 85.3675 415.069 84.1214 418.872 84.0068L420.87 83.9424V83.2119C420.87 82.2881 420.67 81.6077 420.269 81.1709C419.875 80.7269 419.241 80.5049 418.367 80.5049C417.386 80.5049 416.276 80.8057 415.037 81.4072L414.489 80.043C415.069 79.7279 415.703 79.4808 416.391 79.3018C417.085 79.1227 417.78 79.0332 418.475 79.0332C419.878 79.0332 420.917 79.3447 421.59 79.9678C422.27 80.5908 422.61 81.5898 422.61 82.9648V91H421.289ZM417.261 89.7432C418.371 89.7432 419.241 89.4388 419.871 88.8301C420.508 88.2214 420.827 87.3691 420.827 86.2734V85.21L419.044 85.2852C417.626 85.3353 416.602 85.5573 415.972 85.9512C415.349 86.3379 415.037 86.943 415.037 87.7666C415.037 88.4111 415.23 88.9017 415.617 89.2383C416.011 89.5749 416.559 89.7432 417.261 89.7432ZM440.023 89.4209H439.927C439.103 90.6169 437.871 91.2148 436.231 91.2148C434.692 91.2148 433.492 90.6885 432.633 89.6357C431.781 88.583 431.354 87.0863 431.354 85.1455C431.354 83.2048 431.784 81.6973 432.644 80.623C433.503 79.5488 434.699 79.0117 436.231 79.0117C437.828 79.0117 439.053 79.5918 439.905 80.752H440.045L439.97 79.9033L439.927 79.0762V74.2852H441.71V91H440.26L440.023 89.4209ZM436.457 89.7217C437.674 89.7217 438.555 89.3923 439.1 88.7334C439.651 88.0674 439.927 86.9967 439.927 85.5215V85.1455C439.927 83.4769 439.647 82.2881 439.089 81.5791C438.537 80.863 437.653 80.5049 436.436 80.5049C435.39 80.5049 434.588 80.9131 434.029 81.7295C433.478 82.5387 433.202 83.6846 433.202 85.167C433.202 86.6709 433.478 87.806 434.029 88.5723C434.581 89.3385 435.39 89.7217 436.457 89.7217ZM450.476 91.2148C448.735 91.2148 447.36 90.6849 446.351 89.625C445.348 88.5651 444.847 87.0934 444.847 85.21C444.847 83.3122 445.312 81.8047 446.243 80.6875C447.181 79.5703 448.438 79.0117 450.014 79.0117C451.489 79.0117 452.656 79.4987 453.516 80.4727C454.375 81.4395 454.805 82.7178 454.805 84.3076V85.4355H446.694C446.73 86.8177 447.077 87.8669 447.736 88.583C448.402 89.2992 449.337 89.6572 450.54 89.6572C451.808 89.6572 453.061 89.3923 454.3 88.8623V90.4521C453.67 90.7243 453.072 90.9176 452.506 91.0322C451.947 91.154 451.271 91.2148 450.476 91.2148ZM449.992 80.5049C449.047 80.5049 448.291 80.8128 447.726 81.4287C447.167 82.0446 446.838 82.8968 446.737 83.9854H452.893C452.893 82.861 452.642 82.0016 452.141 81.4072C451.639 80.8057 450.923 80.5049 449.992 80.5049ZM460.434 91L455.965 79.2266H457.877L460.412 86.209C460.985 87.8418 461.322 88.9017 461.422 89.3887H461.508C461.587 89.0091 461.834 88.2249 462.249 87.0361C462.672 85.8402 463.613 83.237 465.074 79.2266H466.986L462.518 91H460.434Z" fill="#5F5F63"/>
</svg>
